<svg id="レイヤー_3" data-name="レイヤー 3" xmlns="http://www.w3.org/2000/svg" viewBox="0 0 235.646 212.193">
  <defs>
    <style>
      .cls-1 {
        fill: #fff;
      }
    </style>
  </defs>
  <g>
    <path class="cls-1" d="M180.475,178.691H197.2l9.15-.224.45.375v8.324l-.526.525-9.074-.225H180.475v3.3l.3,11.174c0,8.85-2.474,11.025-14.849,11.025-1.5,0-1.574-.15-1.949-.9l-4.2-8.25c3.525,0,6.6,0,7.875-.15,1.575-.149,2.025-.6,2.025-2.4v-13.8h-15.9l-9.824.225-.525-.45v-8.4l.45-.375,9.9.224h15.9v-6.224h-3l-8.324.224-.526-.375v-4.049a92.168,92.168,0,0,1-9.3,5.849,3.806,3.806,0,0,1-1.874.676,1.563,1.563,0,0,1-1.125-.525l-7.349-7.125c13.574-6.45,24.448-15.224,31.573-25.649l.825-.225L181,143.743l.225.75-1.125,1.574c8.474,7.425,17.1,14.25,31.723,19.275l-6.524,7.875a2.737,2.737,0,0,1-2.1,1.349,2.833,2.833,0,0,1-1.349-.45,111.428,111.428,0,0,1-10.05-6.074v4.274l-.449.375-8.4-.224h-2.474ZM165.7,193.916l.151.825a87.005,87.005,0,0,1-17.4,14.4,2.191,2.191,0,0,1-1.275.524,1.561,1.561,0,0,1-1.125-.524l-6.449-6.226a60.953,60.953,0,0,0,17.024-13.574l.675-.075Zm20.174-30.148a116.309,116.309,0,0,1-11.624-10.276,90.745,90.745,0,0,1-10.5,10.276l2.925.074h16.274Zm14.4,45.972-.9-.075a107.056,107.056,0,0,0-15.824-14.624v-.6l6.9-5.324.9.075a140.246,140.246,0,0,1,16.124,12.674l-.076.825Z" transform="translate(-138.177 -141.118)"/>
    <path class="cls-1" d="M352.975,170.667l-.451.375-8.4-.226H329.275l-8.325.226-.524-.45v-3.525a91.573,91.573,0,0,1-9.9,6.075,4.915,4.915,0,0,1-1.8.674,1.6,1.6,0,0,1-1.2-.524l-7.349-6.6c13.124-6.15,23.848-14.549,31.273-25.349l.825-.225L343,143.593l.225.75a15.053,15.053,0,0,1-.975,1.349c8.7,7.351,16.648,13.425,31.573,19.125l-7.05,7.2a3.076,3.076,0,0,1-2.1,1.2,2.859,2.859,0,0,1-1.35-.45c-3.675-1.951-7.125-4.05-10.349-6.15Zm-36.9,30.974v5.7H306.1l.375-12.526v-7.874l-.225-11.174.525-.526,8.924.226h8.851l8.924-.226.525.526-.225,10.724v6.225l.375,12.524h-9.974v-3.6Zm8.1-17.925h-8.1v9.525h8.1Zm22.648-21.524a94.29,94.29,0,0,1-10.5-9.224,92.113,92.113,0,0,1-9.525,9.224l2.475.076h14.849Zm19.949,36.074c0,7.349-4.049,9.149-12.374,9.149-1.125,0-1.35-.149-1.575-.824l-2.925-8.925a39.674,39.674,0,0,0,5.1-.226c.975-.149,1.275-.375,1.275-1.574V183.941h-8.4v13.95l.375,15.6H337.675l.375-15.6v-12.6l-.225-9.524.525-.526,9.6.226h8.55l9.6-.226.525.526-.226,9v4.724Z" transform="translate(-138.177 -141.118)"/>
    <path class="cls-1" d="M141.026,350.836l-.525-.45v-8.174l.525-.375,10.95.225h47.172l10.276-.225.449.375v8.1l-.524.524-10.2-.225H151.976Zm28.049-68.547.525-.525h10.049l.526.525v6.6h17.174l10.424-.226.6.525-.225,5.7v2.175l.375,9.9H197.648v-9.675H152.275v10.425H141.4l.375-9.9v-2.25l-.225-6.375.676-.525,12.223.226h14.625Zm29.7,46.348L199,338.762l-.6.45-9.6-.226H162.4l-10.5.226-.524-.45.225-9.825v-9.375l-.225-7.65.524-.375,10.875.151h25.274l10.349-.151.6.525-.226,7.8Zm-44.1-19.724-.526-.375v-7.65l.451-.525,9.149.225h22.5l8.925-.225.6.449v7.651l-.375.45-9.15-.225h-22.5Zm33.9,9.824H161.5v3.15h27.074ZM161.5,331.861h27.074v-3.224H161.5Z" transform="translate(-138.177 -141.118)"/>
    <path class="cls-1" d="M352.824,292.488l12.225-.224.525.524v8.4l-.525.525-12.225-.225H343v7.95h16.874l12.449-.225.526.524v8.4l-.526.524-12.449-.224h-46.8l-11.4.224-.6-.524v-8.55l.75-.375,11.25.225h18.9v-7.95H318.851c-1.576,2.475-3.151,4.725-4.65,6.675a1.424,1.424,0,0,1-1.125.675,1.788,1.788,0,0,1-.9-.3l-7.574-4.575a75.158,75.158,0,0,0,11.548-19.949l.675-.3,8.7,2.849.225.75c-.675,1.8-1.425,3.525-2.175,5.175h8.4v-10.05l.525-.674h9.9l.6.6v10.125Zm-30,56.923v3.9H311.876l.375-12.9v-6.824l-.226-9.6.451-.45,11.25.225h27.148l11.175-.225.525.45-.225,9.6v6.3l.375,13.274H351.4v-3.75Zm28.574-16.8H322.825v7.951H351.4Z" transform="translate(-138.177 -141.118)"/>
  </g>
</svg>
