<svg id="レイヤー_1" data-name="レイヤー 1" xmlns="http://www.w3.org/2000/svg" xmlns:xlink="http://www.w3.org/1999/xlink" viewBox="0 0 360.67 264.449">
  <defs>
    <style>
      .cls-1, .cls-12, .cls-13 {
        fill: none;
      }

      .cls-2 {
        isolation: isolate;
      }

      .cls-10, .cls-3, .cls-6 {
        fill: #ff1400;
      }

      .cls-11, .cls-12, .cls-13, .cls-15, .cls-16, .cls-3, .cls-4, .cls-6, .cls-9 {
        stroke: #231815;
      }

      .cls-12, .cls-15, .cls-3, .cls-4, .cls-9 {
        stroke-linejoin: round;
      }

      .cls-11, .cls-4, .cls-5 {
        fill: #e8e000;
      }

      .cls-7 {
        clip-path: url(#clip-path);
      }

      .cls-8 {
        fill: #626262;
      }

      .cls-15, .cls-16, .cls-9 {
        fill: #158fff;
      }

      .cls-14 {
        clip-path: url(#clip-path-2);
      }

      .cls-15 {
        stroke-linecap: round;
      }
    </style>
    <clipPath id="clip-path" transform="translate(-30.24 -202.245)">
      <path class="cls-1" d="M106.978,232.851l-.16,56.6q-10.893-.249-21.327-1.416t-19.636-2.805l.161-56.6q9.2,1.642,19.635,2.805T106.978,232.851Z"/>
    </clipPath>
    <clipPath id="clip-path-2" transform="translate(-30.24 -202.245)">
      <path class="cls-1" d="M328.6,360.8l-.16,56.6q-10.893-.249-21.327-1.416t-19.636-2.805l.16-56.6q9.194,1.637,19.636,2.805T328.6,360.8Z"/>
    </clipPath>
  </defs>
  <g>
    <g class="cls-2">
      <polygon class="cls-3" points="60.262 5.58 60.101 62.176 54.323 65.534 54.483 8.938 60.262 5.58"/>
      <polygon class="cls-4" points="38.155 9.225 37.994 65.821 31.322 61.969 31.483 5.373 38.155 9.225"/>
      <polygon class="cls-5" points="62.487 23.273 62.326 79.869 45.937 70.407 46.097 13.811 62.487 23.273"/>
      <polygon class="cls-3" points="83.003 25.404 82.843 82 76.578 87.201 76.739 30.605 83.003 25.404"/>
      <polygon class="cls-6" points="46.097 13.811 45.937 70.407 8.442 92.196 8.603 35.6 46.097 13.811"/>
      <g class="cls-2">
        <g class="cls-7">
          <g class="cls-2">
            <path class="cls-8" d="M106.978,232.851l-.16,56.6-.56-.014.161-56.6.559.014" transform="translate(-30.24 -202.245)"/>
            <path class="cls-4" d="M92.4,232.09q-3.4-.281-6.749-.655-5.038-.562-9.786-1.235-5.09-.721-9.849-1.57l-.161,56.6q4.761.849,9.85,1.57,4.748.672,9.786,1.235,3.351.375,6.749.655,6.912.569,14.018.747l.161-56.6Q99.311,232.66,92.4,232.09Z" transform="translate(-30.24 -202.245)"/>
          </g>
        </g>
      </g>
      <polygon class="cls-4" points="0.66 31.015 0.5 87.611 8.443 92.196 8.603 35.6 0.66 31.015"/>
      <path class="cls-9" d="M84.723,211.183l5.778-3.358-7.942-4.586L76.78,206.6l-6.672-3.853-8.385,4.874,6.672,3.852L30.9,233.26l7.943,4.586,37.494-21.79,16.39,9.463q-6.084-.492-11.851-1.294t-11.855-2.1l-3,6.51q9.2,1.642,19.635,2.805t21.327,1.416l6.265-5.2Z" transform="translate(-30.24 -202.245)"/>
      <path class="cls-3" d="M74.65,235.436c-.029.257-.066.515-.1.772-.065.526-.13,1.053-.206,1.581-.045.31-.1.622-.147.934-.074.477-.149.954-.232,1.432-.058.333-.124.667-.186,1-.084.447-.168.894-.26,1.342-.1.492-.211.985-.321,1.479-.081.362-.159.724-.245,1.087-.122.516-.256,1.035-.389,1.553-.087.341-.17.682-.261,1.023-.155.575-.323,1.152-.49,1.729-.083.288-.16.574-.247.862q-.39,1.3-.821,2.6l-.161,56.6q.433-1.306.822-2.6c.086-.287.163-.573.246-.86.168-.578.336-1.155.49-1.731.092-.342.175-.682.262-1.023.133-.518.266-1.037.389-1.553.086-.364.163-.725.244-1.088.111-.493.221-.986.321-1.477.026-.125.048-.25.073-.375.065-.323.127-.646.188-.968s.127-.667.185-1c.084-.478.158-.955.233-1.432.048-.311.1-.624.146-.934.076-.528.141-1.055.206-1.581.032-.257.069-.515.1-.772q.133-1.173.231-2.342l.16-56.6Q74.784,234.263,74.65,235.436Z" transform="translate(-30.24 -202.245)"/>
      <path class="cls-9" d="M63.281,232.276a77.639,77.639,0,0,1-1.326,9.853,67.029,67.029,0,0,1-2.808,9.886l11.6.819a84.7,84.7,0,0,0,4.133-19.74Z" transform="translate(-30.24 -202.245)"/>
      <polygon class="cls-4" points="28.907 49.77 28.747 106.366 40.346 107.184 40.507 50.588 28.907 49.77"/>
    </g>
    <g class="cls-2">
      <polygon class="cls-4" points="96.746 41.745 96.585 98.341 91.261 95.267 91.421 38.671 96.746 41.745"/>
      <polygon class="cls-10" points="104.688 46.33 104.528 102.926 96.212 107.759 96.373 51.163 104.688 46.33"/>
      <polygon class="cls-4" points="79.968 51.495 79.808 108.091 73.066 104.198 73.226 47.602 79.968 51.495"/>
      <polygon class="cls-11" points="125.4 58.288 125.24 114.884 104.528 102.926 104.688 46.33 125.4 58.288"/>
      <polygon class="cls-3" points="125.4 58.288 125.24 114.884 133.625 110.011 133.786 53.415 125.4 58.288"/>
      <polygon class="cls-10" points="87.911 56.081 87.75 112.677 81.198 116.484 81.358 59.888 87.911 56.081"/>
      <path class="cls-10" d="M111.2,262.371c-.086.051-.162.1-.244.153-.1.064-.2.128-.3.191-.152.1-.3.2-.436.292-.084.059-.172.117-.253.175-.149.107-.287.212-.422.317-.06.047-.125.093-.182.139-.183.148-.354.294-.509.438l-.008.007c-.015.014-.028.028-.043.043q-.2.191-.373.378c-.041.045-.077.089-.115.134s-.1.113-.145.169c-.023.028-.037.056-.058.085-.071.1-.132.188-.191.281-.026.043-.062.086-.086.128-.013.024-.021.047-.033.071-.032.059-.057.117-.083.175s-.051.1-.069.146-.039.112-.055.168a1.053,1.053,0,0,0-.031.126,1.5,1.5,0,0,0-.029.25v.038l-.161,56.6a1.535,1.535,0,0,1,.06-.414,2.471,2.471,0,0,1,.125-.314c.026-.058.051-.116.082-.175s.079-.132.12-.2c.058-.093.12-.187.191-.281s.129-.168.2-.253c.038-.045.075-.09.116-.136q.169-.185.37-.374l.046-.047c.158-.146.332-.3.518-.444.055-.045.117-.09.175-.134.137-.107.277-.214.428-.322.08-.057.167-.115.25-.173.142-.1.287-.2.44-.3.1-.062.2-.125.3-.187.209-.13.419-.261.647-.393l.16-56.6Q111.393,262.253,111.2,262.371Z" transform="translate(-30.24 -202.245)"/>
      <polygon class="cls-3" points="125.601 68.038 125.441 124.634 116.979 129.552 117.14 72.956 125.601 68.038"/>
      <polygon class="cls-11" points="117.14 72.956 116.979 129.552 87.75 112.677 87.911 56.081 117.14 72.956"/>
      <path class="cls-4" d="M102.051,274.339a18.706,18.706,0,0,1-5.395-4.261,5.749,5.749,0,0,1-1.41-3.573l-.16,56.6a5.741,5.741,0,0,0,1.409,3.573,18.72,18.72,0,0,0,5.395,4.261L120.9,341.912l.16-56.6Z" transform="translate(-30.24 -202.245)"/>
      <path class="cls-9" d="M134.928,248.576l20.712,11.958,8.386-4.873-33.98-19.618-8.385,4.873,5.325,3.074-8.316,4.833-6.742-3.893-8.462,4.918,6.742,3.892-6.553,3.808a31.318,31.318,0,0,0-5.951,4.28,7.243,7.243,0,0,0-2.421,4.114,5.471,5.471,0,0,0,1.373,4.136,18.706,18.706,0,0,0,5.395,4.261l19.013,10.977,10.3-3.767-20.788-12q-3.477-2.007-2.986-3.686t4.007-3.727l6.552-3.808L147.379,275.2l8.462-4.917-29.229-16.875Z" transform="translate(-30.24 -202.245)"/>
      <polygon class="cls-3" points="101.126 79.304 100.965 135.9 90.664 139.667 90.825 83.071 101.126 79.304"/>
    </g>
    <g class="cls-2">
      <polygon class="cls-3" points="171.296 84.213 171.136 140.809 183.676 133.522 183.837 76.926 171.296 84.213"/>
      <polygon class="cls-4" points="155.032 84.545 154.872 141.141 139.836 132.46 139.996 75.864 155.032 84.545"/>
      <polygon class="cls-11" points="177.947 97.775 177.786 154.371 162.744 145.686 162.904 89.09 177.947 97.775"/>
      <polygon class="cls-3" points="186.339 92.898 186.178 149.494 177.786 154.371 177.947 97.775 186.339 92.898"/>
      <path class="cls-3" d="M188.78,293.872q-3.454,2.007-8.217,4.243c-.884.414-1.795.8-2.723,1.168-.3.117-.6.224-.9.337-.647.242-1.3.478-1.968.7q-.744.246-1.5.475c-.253.076-.5.154-.759.227-.825.234-1.66.457-2.515.659-.873.208-1.762.382-2.661.536-.16.027-.323.051-.484.077-.869.138-1.745.26-2.638.349h-.01c-.074.007-.152.008-.226.015-.943.089-1.9.155-2.868.19q-1.507.053-3.057.019c-.13,0-.262-.014-.392-.019-.446-.015-.894-.037-1.344-.072-.184-.015-.369-.037-.554-.055-.408-.039-.817-.083-1.228-.138-.2-.027-.4-.059-.6-.089q-.726-.111-1.456-.254c-.176-.035-.352-.067-.529-.1q-1.159-.246-2.333-.575c-.207-.058-.414-.12-.622-.181q-.577-.173-1.158-.362c-.235-.078-.47-.157-.706-.24-.392-.136-.784-.281-1.177-.431-.32-.122-.638-.238-.959-.369h0l-.16,56.6c.171.07.34.13.51.2.151.059.3.116.452.173.393.15.785.3,1.176.431.235.083.471.162.706.24q.581.19,1.159.362l.432.126.187.055q1.173.327,2.334.574l.169.034c.121.025.242.048.363.071q.729.143,1.452.254l.352.052c.085.012.169.026.253.037.41.055.818.1,1.225.138.143.014.287.031.43.042.042,0,.085.01.128.013.449.035.9.056,1.341.072.106,0,.214.013.321.016l.072,0c1.014.023,2.012.014,3-.019h.061c.983-.035,1.949-.1,2.9-.192.061-.006.124-.007.185-.013h0l.016,0c.891-.088,1.765-.21,2.632-.348.162-.026.325-.05.486-.077.13-.023.256-.055.386-.078.765-.138,1.528-.28,2.275-.458.854-.2,1.69-.425,2.514-.659.256-.073.506-.151.759-.227.357-.107.706-.221,1.057-.333.15-.048.3-.093.449-.142.667-.22,1.319-.455,1.964-.7.3-.113.61-.221.908-.339.927-.367,1.838-.753,2.721-1.167q4.761-2.235,8.218-4.243l4.364-2.536.16-56.6Z" transform="translate(-30.24 -202.245)"/>
      <path class="cls-9" d="M201.536,286.459l12.54-7.288-7.872-4.545-12.54,7.288-15.036-8.681-8.392,4.877,15.036,8.681-4.364,2.536q-2.751,1.6-6.206,3.317a38.331,38.331,0,0,1-7.334,2.747,26.925,26.925,0,0,1-7.88.881A16.352,16.352,0,0,1,151.8,294l-6.617,5.975a36.791,36.791,0,0,0,13.063,2.89,46.884,46.884,0,0,0,11.944-1.187,53.324,53.324,0,0,0,10.373-3.564q4.76-2.235,8.217-4.243l4.364-2.536,15.042,8.684,8.392-4.877Z" transform="translate(-30.24 -202.245)"/>
    </g>
    <g class="cls-2">
      <polygon class="cls-3" points="217.214 101.583 217.054 158.179 181.817 178.656 181.978 122.06 217.214 101.583"/>
      <polygon class="cls-10" points="173.586 126.937 173.425 183.533 170.045 185.497 170.205 128.901 173.586 126.937"/>
      <polygon class="cls-4" points="170.205 128.901 170.045 185.497 162.172 180.952 162.333 124.356 170.205 128.901"/>
      <polygon class="cls-4" points="173.586 126.937 173.425 183.533 195.982 196.556 196.143 139.96 173.586 126.937"/>
      <polygon class="cls-4" points="200.634 146.47 200.474 203.066 192.602 198.521 192.762 141.925 200.634 146.47"/>
      <g>
        <polygon class="cls-10" points="247.643 119.151 247.483 175.747 200.474 203.066 200.634 146.47 247.643 119.151"/>
        <polygon class="cls-12" points="247.643 119.151 247.483 175.747 200.474 203.066 200.634 146.47 247.643 119.151"/>
      </g>
      <polygon class="cls-9" points="239.771 114.606 204.535 135.083 181.978 122.06 217.214 101.583 209.342 97.037 162.333 124.356 170.205 128.901 173.586 126.937 196.143 139.96 192.762 141.925 200.634 146.47 247.643 119.151 239.771 114.606"/>
    </g>
    <g class="cls-2">
      <polygon class="cls-10" points="281.88 133.531 281.719 190.127 275.94 193.485 276.101 136.889 281.88 133.531"/>
      <polygon class="cls-11" points="259.766 137.173 259.606 193.769 252.94 189.92 253.101 133.324 259.766 137.173"/>
      <polygon class="cls-5" points="284.105 151.225 283.944 207.82 267.555 198.358 267.715 141.762 284.105 151.225"/>
      <g>
        <polygon class="cls-10" points="304.621 153.355 304.461 209.951 298.196 215.152 298.357 158.556 304.621 153.355"/>
        <polygon class="cls-12" points="304.621 153.355 304.461 209.951 298.196 215.152 298.357 158.556 304.621 153.355"/>
      </g>
      <g>
        <polygon class="cls-10" points="267.715 141.762 267.555 198.358 230.06 220.147 230.221 163.551 267.715 141.762"/>
        <polygon class="cls-13" points="267.715 141.762 267.555 198.358 230.06 220.147 230.221 163.551 267.715 141.762"/>
      </g>
      <g class="cls-2">
        <g class="cls-14">
          <g class="cls-2">
            <path class="cls-5" d="M314.018,360.041q-3.4-.281-6.749-.655-5.02-.561-9.755-1.231-5.109-.724-9.881-1.574l-.16,56.6q4.772.851,9.881,1.574,4.734.671,9.755,1.231,3.351.375,6.749.655,6.912.57,14.019.747l.16-56.6Q320.929,360.611,314.018,360.041Z" transform="translate(-30.24 -202.245)"/>
            <path class="cls-12" d="M314.018,360.041q-3.4-.281-6.749-.655-5.02-.561-9.755-1.231-5.109-.724-9.881-1.574l-.16,56.6q4.772.851,9.881,1.574,4.734.671,9.755,1.231,3.351.375,6.749.655,6.912.57,14.019.747l.16-56.6Q320.929,360.611,314.018,360.041Z" transform="translate(-30.24 -202.245)"/>
          </g>
        </g>
      </g>
      <polygon class="cls-4" points="230.221 163.551 230.06 220.147 222.111 215.558 222.272 158.962 230.221 163.551"/>
      <path class="cls-15" d="M306.341,339.134l5.778-3.358-7.949-4.589-5.778,3.358-6.666-3.848-8.385,4.873,6.665,3.848-37.494,21.79,7.949,4.589,37.494-21.79,16.389,9.463q-6.093-.5-11.85-1.294t-11.862-2.108l-3,6.513q9.194,1.637,19.636,2.805T328.6,360.8l6.265-5.2Z" transform="translate(-30.24 -202.245)"/>
      <path class="cls-3" d="M295.654,423.27c.048-.31.1-.621.146-.931.076-.531.142-1.06.208-1.589.031-.255.068-.51.1-.765q.134-1.175.233-2.344l.16-56.6q-.1,1.168-.232,2.342c-.03.258-.067.518-.1.776-.065.526-.131,1.052-.207,1.58-.045.31-.1.62-.146.93-.075.479-.149.957-.233,1.438-.058.332-.123.666-.186,1-.084.449-.169.9-.261,1.348-.1.49-.21.981-.319,1.472-.081.363-.159.726-.245,1.09-.122.515-.255,1.032-.387,1.548-.088.343-.171.685-.263,1.028-.154.573-.321,1.148-.488,1.724-.083.288-.16.575-.247.863q-.389,1.3-.82,2.6l-.161,56.6q.432-1.3.821-2.6c.086-.288.163-.574.246-.862.167-.576.335-1.152.489-1.726.092-.342.174-.682.261-1.024.133-.518.266-1.036.389-1.552.086-.363.163-.725.244-1.087.109-.492.219-.984.32-1.474.022-.109.049-.218.07-.326.069-.341.127-.681.19-1.021s.128-.668.186-1C295.5,424.227,295.579,423.748,295.654,423.27Z" transform="translate(-30.24 -202.245)"/>
      <path class="cls-16" d="M284.892,360.223a75.172,75.172,0,0,1-1.325,9.853,66.234,66.234,0,0,1-2.8,9.891l11.6.818a85.029,85.029,0,0,0,4.133-19.74Z" transform="translate(-30.24 -202.245)"/>
      <g>
        <polygon class="cls-5" points="262.125 178.539 261.964 235.135 250.365 234.317 250.525 177.721 262.125 178.539"/>
        <polygon class="cls-12" points="262.125 178.539 261.964 235.135 250.365 234.317 250.525 177.721 262.125 178.539"/>
      </g>
    </g>
    <g class="cls-2">
      <polygon class="cls-10" points="349.487 172.564 349.326 229.16 343.129 232.761 343.289 176.165 349.487 172.564"/>
      <g>
        <polygon class="cls-5" points="342.201 185.259 342.041 241.855 319.484 228.832 319.644 172.236 342.201 185.259"/>
        <polygon class="cls-12" points="342.201 185.259 342.041 241.855 319.484 228.832 319.644 172.236 342.201 185.259"/>
      </g>
      <polygon class="cls-5" points="351.778 190.788 351.618 247.384 349.913 246.4 350.074 189.804 351.778 190.788"/>
      <g>
        <polygon class="cls-10" points="360.17 185.911 360.01 242.507 351.618 247.384 351.778 190.788 360.17 185.911"/>
        <polygon class="cls-12" points="360.17 185.911 360.01 242.507 351.618 247.384 351.778 190.788 360.17 185.911"/>
      </g>
      <g>
        <polygon class="cls-10" points="319.644 172.236 319.484 228.832 282.415 250.374 282.575 193.778 319.644 172.236"/>
        <polygon class="cls-12" points="319.644 172.236 319.484 228.832 282.415 250.374 282.575 193.778 319.644 172.236"/>
      </g>
      <g>
        <polygon class="cls-5" points="282.575 193.778 282.415 250.374 274.536 245.825 274.696 189.229 282.575 193.778"/>
        <polygon class="cls-12" points="282.575 193.778 282.415 250.374 274.536 245.825 274.696 189.229 282.575 193.778"/>
      </g>
      <path class="cls-3" d="M358.537,404.7a43.137,43.137,0,0,1-7.369,3.462c-.238.083-.477.164-.715.24-.195.063-.39.109-.585.167-.252.074-.5.149-.754.215-.327.086-.654.16-.981.233-.244.054-.489.111-.733.158-.08.015-.159.037-.239.051-.2.036-.393.052-.59.083-.34.052-.681.105-1.021.142-.089.01-.179.029-.269.038q-.6.06-1.207.088l-.258.011q-.676.023-1.354.006c-.031,0-.063,0-.095,0-.1,0-.205-.013-.308-.017-.307-.013-.614-.024-.922-.05-.125-.01-.251-.029-.376-.042-.176-.017-.351-.038-.527-.059-.158-.019-.315-.03-.473-.053-.209-.029-.418-.074-.627-.109s-.416-.068-.624-.109c-.092-.018-.183-.029-.274-.048q-.653-.135-1.306-.306-.272-.071-.543-.148c-.417-.119-.834-.25-1.254-.393l-.1-.039c-.362-.125-.725-.256-1.089-.4-.1-.038-.195-.089-.292-.129-.459-.186-.92-.393-1.382-.608-.219-.1-.438-.195-.657-.3-.681-.336-1.365-.695-2.053-1.092l-1.066-.616-.16,56.6,1.066.616c.687.4,1.371.756,2.052,1.092.22.108.438.2.656.3.463.216.925.423,1.384.61.1.039.194.073.292.111.362.142.724.29,1.084.414l.111.041c.419.143.836.259,1.252.377.181.052.363.117.543.164.436.114.871.2,1.306.293.092.019.183.043.274.061.209.041.417.074.625.109s.418.063.626.092c.158.023.315.051.472.07.177.021.353.042.529.059.125.013.25.016.376.027.306.025.613.052.919.065.1,0,.208.014.312.017.031,0,.062,0,.094,0,.452.011.9.006,1.354-.009.085,0,.172,0,.258,0,.4-.019.8-.063,1.207-.1.09-.009.179-.013.269-.023.34-.037.681-.09,1.022-.142.2-.031.393-.06.589-.1.079-.014.158-.023.238-.038.245-.047.49-.1.736-.158.326-.073.652-.147.978-.233.252-.066.5-.141.755-.215.195-.058.39-.121.584-.183.239-.077.477-.14.716-.224a43.172,43.172,0,0,0,7.369-3.462l21.776-12.654.16-56.6Z" transform="translate(-30.24 -202.245)"/>
      <path class="cls-15" d="M373.529,378.411l6.2-3.6-7.948-4.589-6.2,3.6L350.4,365.056l-45.462,26.419,7.879,4.549,37.069-21.543L372.441,387.5l-21.776,12.655a16.037,16.037,0,0,1-6.453,2.315,10.946,10.946,0,0,1-6.411-1.74l-2.912-1.68-6.4,6.019,1.066.616a29.856,29.856,0,0,0,7.375,3.111,23.778,23.778,0,0,0,7.144.781,24.869,24.869,0,0,0,7.094-1.415,43.137,43.137,0,0,0,7.369-3.462l21.776-12.654,1.7.984,8.392-4.877Z" transform="translate(-30.24 -202.245)"/>
    </g>
  </g>
</svg>
