<!--?xml version="1.0" encoding="utf-8"?-->
<!-- Generator: Adobe Illustrator 18.1.1, SVG Export Plug-In . SVG Version: 6.00 Build 0)  -->

<svg version="1.1" id="_x32_" xmlns="http://www.w3.org/2000/svg" xmlns:xlink="http://www.w3.org/1999/xlink" x="0px" y="0px" viewBox="0 0 512 512" style="width: 512px; height: 512px; opacity: 1;" xml:space="preserve">
<style type="text/css">
	.st0{fill:#4B4B4B;}
</style>
<g>
	<path class="st0" d="M491.841,349.072c-2.981-3.026-12.781-13.268-12.781-13.268c-36.227-38.397-90.972-96.439-216.37-96.439
		c-125.344,0-180.108,58.024-216.334,96.395c0,0-9.836,10.286-12.808,13.312c-14.627,14.862-20.167,20.897-20.167,25.328
		c0,4.441,5.521,10.448,20.14,25.292c2.981,3.026,11.979,12.412,11.979,12.412c9.161,9.692,19.546,20.671,32.102,31.813l6.602-4.846
		c-18.447-41.216-25.004-55.736-27.562-61.068l7.692-9.304c11.16-13.592,22.716-27.643,36.47-40.64
		c23.185-20.284,42.342-32.39,51.26-32.39c1.82,0,2.865,0.468,3.513,1.738c-6.377,14.493-9.602,29.804-9.602,45.594
		c0,63.888,51.971,115.859,115.832,115.859c63.896,0,115.868-51.971,115.868-115.859c0-16.645-3.676-33.083-10.718-48.125
		c41.955,18.484,67.31,46.405,91.512,75.85c0,0,3.91,4.738,6.215,7.539c-1.801,5.215-5.909,18.672-16.286,54.592l-4.251,14.78
		l11.151-10.566c9.224-8.736,17.258-17.239,24.463-24.868c0,0,9.115-9.486,12.097-12.512c14.618-14.844,20.14-20.851,20.14-25.292
		C512,369.969,506.46,363.935,491.841,349.072z M221.699,353.631c-19.338,0-35.064-15.718-35.064-35.065
		c0-19.339,15.726-35.056,35.064-35.056c19.339,0,35.065,15.717,35.065,35.056C256.764,337.913,241.038,353.631,221.699,353.631z" style="fill: rgb(75, 75, 75);"></path>
	<path class="st0" d="M387.674,205.823c-37.668-10.854-81.533-17.015-128.442-17.015c-46.874,0-90.738,6.161-128.388,17.015
		c-37.596,10.881-70.868,30.66-89.36,47.009c-4.585,4.107-3.793,10.114,1.792,13.474c5.594,3.36,13.853,2.784,18.456-1.279
		c14.852-13.249,46.702-28.552,80.434-38.289c33.732-9.728,73.93-15.439,117.066-15.439c43.162,0,83.361,5.711,117.11,15.439
		c33.74,9.736,64.014,25.04,78.866,38.262c4.612,4.09,12.863,4.666,18.456,1.306c5.593-3.36,6.377-9.367,1.81-13.448v-0.026
		C456.975,236.483,425.288,216.704,387.674,205.823z" style="fill: rgb(75, 75, 75);"></path>
	<path class="st0" d="M29.829,186.413c14.844-19.654,40.072-39.379,72.877-56.322c32.822-16.933,73.12-31.038,117.615-39.865
		c44.532-8.828,87.171-11.151,123.983-8.017c36.786,3.152,67.635,8.07,88.837,20.546c6.575,3.854,16.736,2.558,22.716-2.865
		c5.982-5.413,5.494-12.898-1.044-16.753V83.11c-26.392-15.394-62.078-24.959-103.106-28.49c-41.072-3.495-87.594-0.883-135.98,8.71
		c-48.369,9.583-92.35,24.913-128.983,43.811c-36.56,18.906-65.914,41.36-84.424,65.652c-4.585,6.089-2.171,13.187,5.413,15.916
		C15.336,191.439,25.208,192.457,29.829,186.413z" style="fill: rgb(75, 75, 75);"></path>
</g>
</svg>
